<svg width="16" height="17" viewBox="0 0 16 17" fill="none" xmlns="http://www.w3.org/2000/svg">
<path d="M12.6668 2.28711H3.3335C2.39069 2.28711 1.91928 2.28711 1.62639 2.56191C1.3335 2.83671 1.3335 3.27899 1.3335 4.16355V4.62343C1.3335 5.31532 1.3335 5.66127 1.50656 5.94806C1.67963 6.23484 1.99581 6.41283 2.62817 6.76881L4.57019 7.86203C4.99447 8.10087 5.20661 8.22029 5.3585 8.35216C5.67482 8.62677 5.86955 8.94945 5.95779 9.34522C6.00016 9.53527 6.00016 9.75765 6.00016 10.2024L6.00016 11.9821C6.00016 12.5884 6.00016 12.8916 6.16811 13.128C6.33606 13.3643 6.63435 13.4809 7.23093 13.7142C8.48335 14.2038 9.10956 14.4486 9.55486 14.17C10.0002 13.8915 10.0002 13.255 10.0002 11.9821V10.2024C10.0002 9.75765 10.0002 9.53527 10.0425 9.34522C10.1308 8.94945 10.3255 8.62677 10.6418 8.35216C10.7937 8.22029 11.0059 8.10087 11.4301 7.86203L13.3722 6.76881C14.0045 6.41283 14.3207 6.23484 14.4938 5.94806C14.6668 5.66127 14.6668 5.31532 14.6668 4.62343V4.16355C14.6668 3.27899 14.6668 2.83671 14.3739 2.56191C14.081 2.28711 13.6096 2.28711 12.6668 2.28711Z" fill="#68788D"/>
</svg>
