<svg width="309" height="255" viewBox="0 0 309 255" fill="none" xmlns="http://www.w3.org/2000/svg">
<g clip-path="url(#clip0_577_3595)">
<path d="M8.63555 180.394C8.49081 178.906 8.52298 177.401 7.34905 176.136C6.64148 175.368 7.14 174.216 7.05959 173.223C6.9631 172.199 7.42946 171.671 8.21743 170.87C9.58434 169.51 10.8065 169.862 12.3342 169.894C18.831 170.006 25.3439 170.07 31.8407 169.862C33.5775 169.798 35.2821 169.974 37.0188 169.974C49.9159 169.942 62.8291 170.054 75.7262 169.894C80.0521 169.846 84.3779 169.67 88.7038 169.622C89.0093 169.622 89.2988 169.478 89.6043 169.398C89.9742 168.821 90.537 168.837 91.1159 168.965C93.9945 169.99 95.0237 172.343 95.7956 175.048C99.253 187.245 102.63 199.458 106.023 211.671C108.339 220.042 110.622 228.414 112.906 236.769C113.163 237.714 113.565 238.706 112.729 239.618C111.861 240.323 110.815 240.147 109.834 240.147C97.7736 240.163 85.7127 240.163 73.6518 240.163C58.7284 240.163 43.8212 240.163 28.8978 240.163C27.9973 240.163 27.0967 240.227 26.2123 240.002C24.5238 240.099 24.1056 238.85 23.784 237.601C23.1569 235.104 22.5458 232.607 21.8382 230.126C20.6482 225.933 19.5547 221.707 18.3807 217.513C16.8691 212.151 15.5987 206.725 13.9745 201.395C12.3021 195.856 10.9834 190.222 9.39136 184.668C8.97325 183.291 8.23352 181.931 8.63555 180.394Z" fill="#C3D6E9"/>
<path d="M127.717 102.633C132.043 100.2 136.674 98.3912 141.129 96.2464C146.886 93.4932 152.643 90.7561 158.4 88.019C158.625 87.907 158.882 87.875 159.14 87.7949C159.799 88.6273 159.188 89.3636 158.947 90.1319C158.77 90.6761 158.561 91.2043 158.368 91.7485C157.982 92.5329 157.757 93.3492 157.532 94.1815C156.567 98.4233 155.409 102.633 154.749 106.939C153.945 112.189 153.64 117.471 153.383 122.785C153.174 126.995 153.061 131.205 153.222 135.398C153.415 140.44 153.286 145.498 153.543 150.541C153.849 156.735 153.994 162.93 154.251 169.124C154.283 169.812 154.508 170.469 154.589 171.141C154.203 174.742 154.219 178.36 153.881 181.961C153.688 183.946 153.752 185.947 153.688 187.948C153.431 194.671 152.289 201.313 151.678 208.004C151.565 209.14 151.855 210.341 151.292 211.413C151.196 211.541 151.003 211.733 150.97 211.701C150.52 211.189 150.022 211.557 149.539 211.621C148.816 210.229 149.571 208.852 149.684 207.492C150.166 201.377 150.89 195.279 151.437 189.18C151.581 187.484 150.89 185.963 150.408 184.442C149.073 180.249 147.931 176.023 146.838 171.749C145.712 167.283 144.699 162.802 143.782 158.288C142.592 152.333 141.547 146.347 140.485 140.36C139.73 136.135 139.102 131.877 138.411 127.635C138.138 125.922 137.912 124.21 137.543 122.513C137.141 120.704 137.575 119.296 139.199 118.303C141.225 117.071 143.091 115.614 145.053 114.286C146.162 113.533 146.162 112.989 144.94 112.365C143.943 111.853 143.123 111.116 142.174 110.556C140.566 109.58 140.485 108.908 141.611 107.371C144.602 103.305 147.191 98.9675 149.346 95.7822C147.095 99.1436 144.345 103.609 141.273 107.867C140.341 109.164 140.341 109.388 141.659 110.22C142.721 110.892 143.702 111.693 144.827 112.301C146.033 112.957 146.033 113.565 144.908 114.382C142.785 115.918 140.566 117.359 138.443 118.896C137.591 119.504 137.237 120.16 137.414 121.281C138.089 125.522 138.749 129.78 139.424 134.022C140.276 139.352 141.193 144.682 142.19 149.98C142.962 154.094 143.75 158.208 144.618 162.289C145.615 166.995 146.773 171.653 147.995 176.311C148.767 179.24 149.475 182.233 150.584 185.035C151.726 187.916 151.372 190.749 151.035 193.582C150.279 200.145 149.829 206.739 148.944 213.286C148.494 216.679 148.574 220.137 148.285 223.546C147.963 227.356 147.851 231.197 147.063 234.975C146.854 235.935 146.805 236.944 146.677 237.936C146.612 238.432 146.516 239.041 147.288 239.169C149.764 239.137 152.241 239.057 154.717 239.201C155.795 239.345 155.714 238.608 155.714 237.904C155.698 236.992 155.248 236.063 155.859 235.183C156.518 234.495 157.226 234.479 157.982 235.039C158.834 236.047 158.287 237.392 158.915 238.608C159.027 237.84 158.931 237.152 159.284 236.56C160.121 235.567 161.085 234.703 162.195 234.015C163.465 233.614 164.784 233.854 166.071 233.742C167.196 233.23 165.862 232.91 165.974 232.478C165.331 230.701 165.572 228.86 165.653 227.052C166.055 226.011 166.312 224.987 165.476 224.026C165.186 223.45 165.074 222.842 165.09 222.218C164.945 219.177 164.286 216.167 164.655 213.094C164.784 212.854 165.025 212.598 165.267 212.646C166.843 212.966 168.386 212.342 169.946 212.454C170.67 212.502 171.281 212.774 171.024 213.606C170.654 214.791 171.297 215.047 172.23 215.287C172.921 215.463 174.143 215.303 174.063 216.311C173.999 217.16 172.873 217.208 172.101 217.304C171.072 217.432 170.654 217.96 170.638 218.984C170.606 220.201 171.088 221.433 170.879 222.586C170.284 225.835 170.815 229.085 170.622 232.318C170.541 233.614 170.123 234.687 168.788 235.183C168.177 235.407 167.952 235.951 167.598 236.4C167.148 236.96 167.18 237.392 167.823 237.808C169.367 238.816 169.367 240.849 170.622 242.114C171.12 242.61 170.429 243.17 169.818 243.314C168.772 243.57 167.936 243.122 167.277 242.37C166.826 241.842 166.36 241.346 165.765 240.993C164.897 240.609 163.996 240.737 163.096 240.737C149.314 240.721 135.532 240.737 121.735 240.721C120.802 240.721 119.821 240.897 118.953 240.353C118.293 239.809 118.326 239.073 118.406 238.32C118.985 231.79 119.628 225.259 120.191 218.728C120.77 211.99 121.317 205.235 121.783 198.496C122.073 194.206 122.475 189.917 122.684 185.627C122.7 185.115 122.844 184.57 122.507 184.106C122.137 183.61 121.67 183.178 121.365 182.634C121.059 182.73 120.963 182.986 120.786 183.162C119.387 184.506 118.486 184.33 117.666 182.586C116.605 180.297 115.72 177.976 115.061 175.527C113.71 170.469 111.459 165.763 108.5 161.425C107.487 159.936 106.715 158.32 105.927 156.719C105.059 154.974 104.206 153.23 103.161 151.565C102.855 151.101 102.405 150.637 102.711 149.98C103.531 150.188 103.499 149.468 103.708 149.052C109.754 136.839 115.656 124.562 121.478 112.253C121.928 111.309 122.475 110.412 122.989 109.5C123.793 109.58 124.195 110.156 124.436 110.796C125.176 112.701 125.884 114.638 126.447 116.591C126.881 118.063 126.849 119.568 126.656 121.121C126.334 123.778 126.398 126.467 126.238 129.14C125.755 136.839 125.466 144.538 124.935 152.237C124.597 157.007 124.517 161.777 124.179 165.747C124.613 161.281 124.533 155.967 125.144 150.701C125.417 148.412 125.45 146.075 125.498 143.786C125.61 138.744 125.98 133.718 126.27 128.692C126.559 123.666 126.929 118.639 127.363 113.613C127.637 110.012 127.942 106.33 127.717 102.633Z" fill="#314D65"/>
<path d="M199.552 89.9414C210.181 94.8714 220.795 99.8014 231.441 104.715C232.325 105.116 232.824 105.724 233.209 106.588C236.185 113.247 238.034 120.258 240.124 127.205C244.45 141.546 248.374 156 252.008 170.534C253.52 176.585 255.289 182.619 255.144 188.974C255.048 193.103 254.195 196.897 251.092 199.89C249.098 201.827 246.637 202.851 244 203.556C242.521 203.956 242.07 202.723 241.475 201.875C240.012 199.762 238.243 198.017 235.927 196.865C232.936 195.344 232.824 195.392 232.132 198.658C231.746 200.515 231.521 202.387 231.505 204.276C231.489 205.172 231.457 206.085 230.588 206.677C228.369 207.653 225.957 207.541 223.625 207.894C222.532 208.054 221.438 208.198 220.345 208.342C219.669 208.422 218.994 208.63 218.56 209.238C216.951 210.455 215.826 210.455 213.928 209.27C210.664 209.174 207.431 209.686 204.167 209.91C200.13 210.182 196.078 210.471 192.058 210.983C191.157 211.095 190.064 211.303 189.163 210.647C188.504 209.718 188.407 208.63 188.375 207.557C188.359 207.045 188.391 206.533 188.166 206.053C187.619 200.29 186.59 194.576 185.947 188.814C185.931 188.558 185.866 188.302 185.834 188.029C185.448 185.772 185.786 185.18 188.037 184.684C194.582 183.243 201.079 181.579 207.624 180.154C211.291 179.354 214.861 178.217 218.56 177.577C220.023 177.513 221.358 176.889 222.757 176.569C225.587 175.8 225.571 175.816 224.317 173.271C223.931 172.487 223.336 171.799 223.159 170.918C223.239 167.541 223.979 164.244 224.461 160.93C225.684 152.719 226.874 144.508 228.015 136.28C228.08 135.864 228.047 135.432 228.047 135.016C227.999 132.727 226.922 131.462 224.686 131.19C221.969 130.854 219.235 130.502 216.517 130.182C215.713 130.086 214.941 129.974 214.282 129.478C213.333 127.253 211.436 127.109 209.345 126.981C204.038 126.644 198.748 126.052 193.489 125.3C191.945 125.076 190.45 125.044 189.018 125.732C188.005 125.892 187.394 125.46 187.217 124.451C187.137 123.971 186.864 123.619 186.574 123.235C185.497 121.874 185.802 120.274 187.346 119.569C188.279 119.153 188.809 118.641 188.793 117.601C188.793 117.072 188.954 116.528 189.34 116.144C190.144 115.344 190.61 114.431 190.884 113.311C191.205 111.998 192.058 111.726 193.312 112.303C193.602 112.431 193.843 112.655 194.164 112.703C196.4 113.999 198.362 115.68 200.34 117.329C201.337 118.161 201.385 119.233 200.999 120.354C200.661 121.346 200.259 122.307 199.921 123.299C200.275 122.291 200.709 121.298 201.063 120.29C201.706 118.465 201.594 118.193 200.05 116.96C198.828 115.968 197.461 115.152 196.319 114.047C195.161 112.911 195.226 112.415 196.705 111.79C198.104 111.214 199.439 110.462 200.918 110.03C201.899 109.757 202.334 109.117 202.076 107.869C201.208 103.643 200.613 99.3532 199.986 95.0795C199.745 93.4468 199.246 91.8302 199.391 90.1495C199.439 90.0534 199.487 90.0054 199.552 89.9414Z" fill="#304D65"/>
<path d="M229.416 245.658C229.766 246.155 230.264 246.016 230.703 246.02C241.028 246.111 251.338 246.203 261.663 246.278C263.444 245.29 265.231 245.306 266.995 246.325C268.399 246.354 269.789 246.414 271.193 246.394C271.973 246.385 272.397 246.596 272.388 247.616C272.369 249.702 272.464 251.806 272.474 253.892C272.483 256.075 272.454 256.091 270.441 256.073C255.975 255.945 241.495 255.816 227.029 255.688C152.063 255.024 77.1104 254.377 2.14393 253.713C-0.167748 253.692 0.0140796 253.981 0.0230292 251.368C0.0260549 249.425 0.114173 247.482 0.0319651 245.554C-0.0273794 244.248 0.44345 243.933 1.4925 243.99C2.98105 244.067 4.48492 244.017 5.97418 244.014C6.54781 243.302 7.31308 243.373 8.05054 243.379C13.369 243.41 18.6731 243.457 23.9912 243.52C24.9414 243.529 25.7652 243.393 26.1583 242.249C26.3448 242.012 26.5453 241.791 26.8407 242.064C27.3694 243.232 28.2033 243.558 29.3519 243.584C50.3955 244.057 71.4416 244.259 92.4895 244.254C108.176 244.25 123.846 244.516 139.533 244.544C140.369 244.551 141.206 244.542 142.042 244.661C142.879 244.589 143.716 244.581 144.553 244.588C158.905 244.715 173.258 244.842 187.61 244.969C188.588 244.978 189.567 245.018 190.424 244.341C192.358 245.282 194.403 245.014 196.431 245.063C200.146 245.16 203.878 245.018 207.591 245.258C209.011 245.095 210.429 245.155 211.846 245.28C215.719 245.17 219.577 245.189 223.447 245.382C225.447 245.4 227.45 245.019 229.416 245.658Z" fill="#5195AF"/>
<path d="M199.567 38.7687C199.76 38.9448 199.921 39.2809 200.13 39.2969C202.269 39.537 202.719 41.5058 203.363 42.8824C204.022 44.307 203.941 46.1157 203.298 47.7804C202.607 49.6051 202.301 51.5419 200.597 52.8865C199.101 54.071 197.573 55.0634 195.628 55.2714C194.63 55.3835 194.261 55.9597 194.1 56.9361C193.328 61.546 193.843 66.2519 193.328 70.8458C192.894 74.7194 193.006 78.577 192.91 82.4345C193.28 83.4109 192.476 83.7631 191.897 84.1152C187.394 86.9003 183.02 89.9256 178.405 92.5507C176.796 93.463 175.413 94.6635 173.838 95.6079C173.419 95.7039 173.033 95.6079 172.68 95.3998C169.753 92.5346 166.633 89.8616 163.771 86.9484C163.32 86.4842 162.677 86.052 162.951 85.2197C162.983 84.9315 163.015 84.6274 163.047 84.3393C163.417 83.9071 163.915 83.9712 164.366 84.0832C170.01 85.5558 174.577 83.2028 178.935 80.0816C182.698 77.3765 185.866 74.0951 188.246 70.3496C183.502 76.5761 174.867 81.25 165.363 78.4809C164.157 78.1288 163.932 78.5449 163.867 79.6494C163.819 80.5938 164.398 81.7943 163.063 82.3865C163.047 81.6982 162.886 80.9939 163.031 80.3537C163.674 77.4245 161.728 76.192 159.702 74.7834C157.017 72.9106 154.99 70.3816 153.527 67.4364C152.61 65.5796 151.71 63.7229 151.485 61.594C151.34 60.2975 150.407 59.5932 149.137 59.3371C150.391 57.9125 149.346 56.4559 149.201 55.0153C148.51 52.7264 148.397 50.3414 147.979 48.0045C147.32 43.0104 146.258 38.0644 146.483 32.9904C146.5 32.6222 146.483 32.2541 146.5 31.8859C146.612 30.2372 147.078 29.773 148.751 29.661C150.488 29.549 152.224 29.693 153.977 29.5169C160.233 28.8607 165.733 26.2356 171.055 23.1303C174.561 21.0815 178.115 19.0967 181.492 16.8238C182.023 16.4716 182.618 16.0234 183.229 16.3916C183.953 16.8238 183.695 17.6241 183.567 18.2643C183.02 21.0335 182.779 23.7706 183.599 26.5397C184.419 29.2608 185.577 31.5818 188.986 31.5818C189.726 31.5818 190.096 32.094 190.385 32.7022C191.286 36.4478 191.334 40.3053 191.881 44.0989C191.945 44.5631 191.897 45.0433 192.202 45.6195C192.62 44.323 192.878 43.0905 193.424 41.97C194.293 40.1613 195.628 38.8968 197.638 38.4646C198.329 38.2725 199.005 38.2405 199.567 38.7687Z" fill="#FEBEB8"/>
<path d="M102.646 150.03C104.238 152.015 105.396 154.256 106.361 156.561C107.744 159.826 110.124 162.499 111.652 165.684C113.63 169.846 115.447 174.024 116.396 178.586C116.733 180.202 117.843 181.739 118.534 183.355C118.759 183.868 119.29 183.884 119.724 183.452C119.982 183.195 120.287 182.955 120.48 182.651C121.059 181.819 121.542 181.003 121.927 182.779C121.992 183.099 122.571 183.291 122.619 183.772C122.764 184.556 122.41 185.212 121.992 185.836C119.869 189.102 117.618 192.287 114.723 194.944C112.777 196.737 110.51 197.921 108.001 198.674C106.892 199.01 105.734 199.234 104.64 198.53C103.868 197.729 103.74 196.641 103.466 195.648C101.649 189.07 99.7998 182.507 98.1434 175.896C97.2911 172.455 95.4096 170.342 91.9361 169.654C91.6788 169.606 91.4215 169.542 91.2124 169.366C90.6817 169.382 90.135 169.382 89.6043 169.398C86.5328 169.398 83.4774 169.366 80.4219 169.43C79.4892 169.446 78.9907 169.174 78.6048 168.325C74.4719 159.106 70.7571 149.726 66.8494 140.426C66.4313 139.434 66.5599 138.761 67.5087 138.185C68.6827 137.481 69.3581 136.184 70.5642 135.496C72.2044 135.64 73.6678 135.096 75.0991 134.375C77.5595 133.143 79.9556 131.83 82.3034 130.39C84.0241 129.317 85.6161 128.133 86.5328 126.244C86.7097 125.86 86.967 125.524 87.4333 125.412C87.964 124.355 88.4304 124.676 88.8806 125.476C90.135 127.653 91.4375 129.814 92.6597 132.007C96.0046 138.025 99.3173 144.027 102.646 150.03Z" fill="#264058"/>
<path d="M187.716 33.1499C187.507 32.6536 187.33 32.3175 186.59 32.3975C184.387 32.6697 182.843 31.5812 181.814 29.7084C179.9 26.235 179.997 22.5375 180.608 18.792C180.721 18.1357 180.914 17.4795 181.139 16.5511C176.475 19.9125 171.635 22.4895 166.907 25.2266C160.442 28.9721 153.543 31.005 146.017 30.5248C145.036 30.4608 144.763 30.7009 144.747 31.6933C144.634 37.2475 145.583 42.7057 146.146 48.196C146.371 48.5641 146.371 48.8683 145.873 48.9963C144.618 48.0519 144.618 46.7554 144.876 45.3788C143.541 40.6249 142.303 35.8389 141.547 30.957C141.466 30.4287 141.273 30.0446 140.582 29.9165C136.111 29.0842 133.796 26.123 132.976 21.8973C132.252 18.1517 132.477 14.4382 134.053 10.9168C135.243 8.22769 136.948 6.32291 140.871 7.07522C146.612 8.17967 152.08 6.64304 157.467 4.77028C161.295 3.42573 165.122 2.03316 169.239 1.68102C174.851 1.20082 179.707 2.57738 183.422 7.05921C183.036 4.61021 181.814 3.18563 177.585 0.128385C182.377 -0.719961 187.298 3.52177 186.896 8.27571C186.799 9.36415 186.912 9.68428 188.102 9.7323C192.267 9.89237 196.207 13.2697 197.542 17.6555C198.04 21.7212 195.644 24.5864 193.328 27.4195C191.64 29.4683 189.646 31.2931 187.716 33.1499Z" fill="#27415A"/>
<path d="M71.2557 134.487C71.0789 133.334 71.6578 131.766 69.7924 131.478C69.0044 131.365 68.2003 130.901 67.5571 130.949C65.4344 131.077 64.1961 129.541 63.0222 128.468C60.5778 126.243 58.0853 124.083 55.6087 121.906C54.4187 120.865 54.4187 119.601 54.869 118.32C55.3032 117.104 55.9304 115.951 55.9625 114.623C55.9786 114.094 56.3002 113.758 56.5897 113.39C57.3616 112.382 57.9405 111.325 57.9084 109.965C57.8762 108.38 58.8732 107.276 59.9828 106.251C61.1728 105.147 61.0764 105.019 59.6612 104.17C56.0751 102.042 52.5533 99.8486 48.9833 97.6878C48.324 97.2876 47.5842 96.9835 46.9249 96.5833C46.1048 96.0871 45.3007 95.5269 45.1881 94.4864C45.0917 93.5581 44.8987 92.4856 45.8957 91.9094C47.0053 91.2851 48.3079 91.2851 49.4175 91.7813C53.6951 93.7021 57.6671 96.1831 61.607 98.7122C64.0996 100.313 66.5761 101.929 69.2456 103.258C69.7602 103.514 70.323 103.738 70.7411 103.466C71.9151 102.682 72.9443 103.05 73.9735 103.674C76.3374 105.083 79.1194 105.771 81.0331 107.948C83.1719 110.381 84.4262 113.198 84.5227 116.383C84.6031 118.992 84.7318 121.586 85.1821 124.163C85.2625 124.611 85.3589 124.979 85.8414 125.139C86.3238 126.019 85.6162 126.5 85.1499 127.012C83.6222 128.74 81.5638 129.733 79.6501 130.917C77.5113 132.246 75.2921 133.478 72.9764 134.455C72.4136 134.695 71.8186 135.143 71.2557 134.487Z" fill="#FDBCB5"/>
<path d="M194.084 113.071C193.199 113.327 192.636 111.918 191.8 112.51C191.044 113.039 191.318 114.047 191.173 114.863C191.125 115.103 190.98 115.424 190.787 115.52C189.436 116.192 189.179 117.328 189.324 118.689C189.436 119.681 188.632 119.745 187.989 119.889C187.217 120.065 186.574 120.306 186.493 121.234C186.429 122.05 186.381 122.819 187.49 123.011C187.909 123.091 188.037 123.507 187.86 123.891C187.442 124.819 188.053 125.155 188.729 125.476C189.34 126.276 189.066 126.932 188.407 127.54C185.931 127.941 183.502 127.925 181.235 126.66C180.817 125.956 181.01 125.22 181.251 124.531C184.596 115.023 187.442 105.371 190.144 95.6554C190.369 95.0952 190.466 94.519 190.466 93.9267C191.511 91.9259 191.8 89.8451 191.398 87.6202C191.302 87.108 191.35 86.5797 191.832 86.2116C191.929 85.9875 192.009 85.6354 192.347 85.9075C194.534 87.6202 197.204 88.4845 199.535 89.9411C199.503 89.9891 199.471 90.0211 199.423 90.0692C199.101 92.134 199.76 94.1188 200.082 96.1036C200.725 100.121 201.224 104.155 202.076 108.141C202.269 109.053 201.803 109.709 200.967 109.997C198.587 110.798 196.319 111.902 194.084 113.071Z" fill="#304C64"/>
<path d="M262.638 212.55C261.303 214.567 260.146 216.696 258.553 218.537C258.312 218.825 258.151 219.161 258.232 219.545C258.168 219.625 258.103 219.705 258.055 219.785C257.733 220.009 257.363 220.057 256.994 220.057C253.134 220.041 249.275 220.153 245.415 220.009C244.675 219.817 244.756 219.241 244.756 218.649C244.756 217.368 244.804 216.104 244.74 214.823C244.74 214.327 244.884 213.879 245.238 213.51C245.576 213.11 246.332 213.27 246.46 212.582C248.036 208.468 250.995 205.715 255.032 204.067C257.958 202.882 261.014 202.45 264.15 202.562C266.079 202.642 266.24 202.866 265.79 204.691C265.099 207.444 263.828 209.989 262.638 212.55Z" fill="#3E7494"/>
<path d="M245.174 214.791C245.27 216.392 245.897 218.008 244.916 219.545C243.453 220.441 242.826 220.185 242.311 218.681C241.507 216.36 240.639 214.071 239.61 211.83C238.95 210.405 238.629 208.949 240.285 207.86C240.494 207.716 240.526 207.396 240.719 207.204C240.558 207.396 240.494 207.652 240.333 207.812C239.899 208.244 239.594 209.061 238.902 208.837C238.178 208.597 237.889 207.828 237.921 207.028C237.937 206.628 237.728 206.18 238.114 205.843C238.838 204.947 239.175 203.827 239.851 202.914C239.192 203.827 238.822 204.899 238.162 205.795C237.632 206.019 237.358 205.683 237.197 205.267C236.828 204.371 236.313 203.522 236.007 202.674C236.458 203.699 236.908 204.819 237.519 205.859C237.776 206.292 238.018 206.724 237.712 207.172C237.326 207.716 236.844 207.348 236.442 207.14C236.056 206.948 235.622 206.996 235.396 206.868C237.487 207.124 238.822 208.324 239.24 210.581C239.513 212.086 239.545 212.118 237.905 212.15C239.819 212.502 239.996 212.598 240.639 214.087C241.234 215.479 241.684 216.936 242.215 218.36C242.617 219.449 242.247 219.961 241.073 220.025C239.594 220.089 238.114 220.089 236.635 220.025C236.474 220.009 236.313 219.961 236.168 219.897C234.142 218.601 233.322 216.44 232.341 214.423C231.392 212.486 230.894 210.373 230.395 208.276C230.234 207.62 230.057 206.932 230.636 206.34C231.247 204.515 230.781 202.594 231.247 200.737C231.617 199.265 231.746 197.744 231.971 196.239C232.132 195.199 232.598 194.895 233.708 195.215C237.68 196.4 240.414 199.041 242.617 202.37C242.971 202.914 243.324 203.41 244.016 203.522C243.566 204.307 244.177 204.947 244.386 205.587C245.061 207.78 245.849 209.941 245.881 212.278C245.881 212.758 246.123 212.79 246.46 212.55C246.508 213.174 246.187 213.495 245.592 213.575C244.482 213.943 244.45 215.175 243.855 215.719C244.064 215.335 244.305 214.679 245.174 214.791Z" fill="#5391B0"/>
<path d="M191.848 86.2121C191.913 86.8363 191.961 87.4606 192.058 88.0688C192.427 90.2297 192.411 92.2946 190.9 94.0873C189.677 96.2802 187.764 97.8968 186.156 99.7696C184.162 102.075 182.023 104.267 179.852 106.428C178.646 107.629 178.163 107.629 177.166 106.172C176.427 105.1 175.88 103.915 174.995 102.923C173.757 100.922 172.873 98.7452 171.618 96.7444C171.425 96.4243 171.329 96.0721 171.458 95.6879C173.58 93.2389 176.603 92.1025 179.225 90.3738C182.763 88.0368 186.381 85.8119 189.967 83.523C190.273 83.3309 190.578 83.1068 190.675 82.7227C191.655 83.0268 191.141 83.9712 191.446 84.5794C191.688 85.0756 191.382 85.7479 191.848 86.2121Z" fill="#FDFEFE"/>
<path d="M189.967 32.8287C189.951 32.0764 190.401 31.5802 190.9 31.084C192.524 29.4513 194.245 27.8827 195.692 26.1059C197.783 23.5449 199.455 20.7117 199.793 17.3184C202.141 24.4893 200.983 31.6282 199.568 38.7671C195.708 39.0552 194.229 40.3678 193.2 44.3214C192.926 45.3618 192.99 46.5943 191.672 47.4907C191.093 42.4486 190.53 37.6467 189.967 32.8287Z" fill="#1D334B"/>
<path d="M160.715 85.5391C162.565 87.844 164.88 89.6847 167.035 91.6856C168.306 92.87 169.64 93.9905 170.654 95.4151C169.512 97.1118 168.032 98.4883 166.617 99.9289C165.427 101.113 164.414 102.458 163.256 103.658C162.147 104.811 161.391 104.747 160.844 103.242C159.558 99.6728 157.869 96.1994 157.74 92.2938C157.74 92.0377 157.724 91.7656 157.853 91.5255C158.287 90.277 158.721 89.0445 159.156 87.796C159.815 87.1557 159.429 85.7792 160.715 85.5391Z" fill="#FDFEFE"/>
<path d="M160.812 82.6901C161.294 81.4256 161.037 80.0971 161.085 78.8005C161.118 77.8241 161.423 77.6321 162.356 77.9522C171.988 81.2975 180.576 76.6236 186.027 69.9489C186.381 69.5007 186.622 68.9565 187.362 68.7324C187.249 70.109 186.413 71.1174 185.722 72.0778C181.701 77.7121 176.668 82.1299 170.091 84.6749C166.955 85.8754 163.9 85.5233 160.796 84.6749C160.812 84.0027 160.812 83.3464 160.812 82.6901Z" fill="#DF807F"/>
<path d="M127.717 102.635C128.232 102.747 128.344 103.115 128.36 103.579C128.505 107.101 128.022 110.606 127.91 114.127C127.862 115.952 127.508 117.777 127.411 119.602C127.138 125.796 126.575 131.959 126.366 138.153C126.237 141.979 126.028 145.804 125.771 149.63C125.433 155.024 124.983 160.402 124.533 165.781C124.436 166.997 124.919 168.31 123.648 169.414C123.648 167.589 123.552 165.749 123.697 163.924C123.761 163.091 123.857 162.259 123.89 161.427C124.211 154.08 124.469 146.733 124.887 139.402C125.208 133.687 125.707 127.989 125.852 122.275C125.9 120.114 126.27 117.985 125.482 115.904C124.678 113.759 124.195 111.486 122.893 109.55C123.134 108.781 123.455 108.061 123.922 107.421C124.838 107.437 124.967 108.173 125.16 108.797C125.53 110.046 125.932 111.294 126.173 112.175C126.012 111.518 126.077 110.446 126.157 109.39C126.27 107.773 126.495 106.156 126.463 104.524C126.447 103.931 126.623 103.387 127.058 102.955C127.299 102.843 127.508 102.747 127.717 102.635Z" fill="#1D344A"/>
<path d="M144.875 45.3789C145.486 46.4353 145.454 47.6838 145.84 48.8043C146.451 49.5566 145.921 50.0528 145.438 50.565C143.814 52.3257 144.039 53.4622 146.226 54.5506C146.725 54.7907 147.062 55.1749 147.432 55.5431C148.124 56.5675 148.059 57.8 148.236 58.9364C148.381 59.9609 147.416 59.5287 146.901 59.6407C144.505 58.8244 142.849 57.2557 141.948 54.8708C140.71 51.6375 141.386 46.7875 144.875 45.3789Z" fill="#E6A4A0"/>
<path d="M71.2559 134.487C75.1154 133.191 78.4764 130.966 81.9017 128.853C83.4615 127.893 85.0053 126.9 85.8255 125.156C86.4366 124.867 87.0316 124.563 87.4336 125.428C86.7903 127.445 85.5199 128.981 83.751 130.15C80.5508 132.246 77.2381 134.167 73.7163 135.656C72.7193 136.072 71.5614 136.776 70.5805 135.512C70.5644 135.016 71.0147 134.824 71.2559 134.487Z" fill="#F7F9F8"/>
<path d="M127.089 102.954C127.218 106.891 126.543 110.781 126.784 114.718C126.639 114.718 126.494 114.734 126.334 114.734C125.755 112.766 125.144 110.781 124.581 108.796C124.436 108.284 124.356 107.771 123.938 107.403C124.581 106.219 125.224 105.018 125.883 103.85C126.157 103.402 126.446 102.938 127.089 102.954Z" fill="#324D66"/>
<path d="M91.2285 169.381C95.2649 169.605 97.1946 170.325 98.465 174.855C100.363 181.578 102.115 188.333 103.949 195.055C104.254 196.176 104.576 197.28 104.898 198.385C105.476 198.721 105.766 199.265 105.943 199.889C108.644 209.445 111.443 218.969 113.839 228.589C114.611 231.694 115.801 234.704 116.331 237.857C116.605 239.489 118.004 239.377 118.92 240.034C134.117 240.05 149.298 240.05 164.494 240.098C165.154 240.098 166.151 239.553 166.488 240.738C167.55 242.787 166.376 243.731 164.398 243.603C160.764 243.363 157.129 243.427 153.495 243.427C140.903 243.411 128.312 243.443 115.72 243.411C115.527 243.411 115.35 243.379 115.157 243.347C113.614 242.387 112.536 241.154 112.761 239.185C111.796 235.376 110.88 231.55 109.851 227.757C108.773 223.707 107.583 219.673 106.473 215.624C103.563 205.107 100.684 194.591 97.7736 184.075C96.8569 180.746 95.9242 177.4 94.9272 174.103C94.3322 172.102 93.2065 170.389 91.2285 169.381Z" fill="#F9FCFC"/>
<path d="M112.761 239.217C113.405 240.529 113.968 241.906 114.997 243.01C114.627 243.475 114.128 243.523 113.582 243.523C106.972 243.411 100.363 243.507 93.7374 243.475C76.1928 243.475 58.6322 243.475 41.0876 243.475C38.193 243.411 35.2983 243.523 32.3877 243.651C31.6479 243.683 30.8921 243.699 30.2971 243.138C30.1524 243.202 30.0076 243.25 29.8629 243.314C28.303 242.258 26.1964 241.778 25.7622 239.521C53.9847 239.521 82.1911 239.521 110.414 239.521C111.218 239.505 112.022 239.617 112.761 239.217Z" fill="#ACC8DF"/>
<path d="M60.7546 213.911C55.6247 213.895 51.3632 208.885 52.5372 203.971C53.2286 201.042 55.287 199.682 58.9375 200.386C63.6493 201.298 67.0585 206.116 65.4343 211.174C64.8875 212.919 63.1025 213.927 60.7546 213.911Z" fill="#FEFEFE"/>
<path d="M153.463 243.043C156.936 243.043 160.41 243.059 163.899 243.059C166.344 243.059 166.344 243.059 166.488 240.77C167.292 241.57 167.775 242.755 169.077 242.947C169.512 243.011 170.139 243.139 170.332 242.563C170.476 242.114 169.946 242.018 169.64 241.842C169.19 241.602 168.868 241.234 168.788 240.754C168.563 239.361 168.08 238.225 166.521 237.889C166.215 237.825 165.893 237.264 166.022 237.216C167.357 236.784 166.89 234.591 168.659 234.607C169.64 234.607 169.865 233.743 169.898 233.039C169.994 230.894 170.107 228.733 169.833 226.588C169.785 226.284 169.592 225.9 169.705 225.676C170.83 223.435 169.946 221.114 169.946 218.857C169.946 217.336 170.589 216.728 172.02 216.744C172.615 216.744 173.162 216.616 173.87 216.28C173.066 216.104 172.438 215.976 171.811 215.848C169.849 215.447 169.624 214.951 170.702 213.079C169.608 213.03 168.547 212.486 167.678 213.559C167.308 214.023 166.939 213.767 166.569 213.527C166.086 213.191 165.572 212.934 164.961 212.95C164.205 212.534 164.092 211.958 164.526 211.254C165.523 210.533 166.601 210.982 167.598 211.126C174.32 212.134 181.058 213.095 187.812 213.927C188.552 214.023 189.275 214.183 189.951 214.503C192.138 216.472 194.968 217.32 197.525 218.617C201.658 220.714 205.823 222.714 209.843 225.003C210.358 225.292 210.921 225.436 211.387 225.804C207.238 223.467 202.977 221.306 198.715 219.177C196.657 218.153 194.614 217.048 192.459 216.216C191.816 215.96 191.044 215.736 191.913 214.855C194.663 214.615 197.348 215.255 200.05 215.624C203.17 216.04 206.321 216.296 209.441 216.76C210.712 216.952 212.127 216.872 212.915 218.233C213.815 220.938 213.976 223.803 214.378 226.588C215.102 231.678 215.825 236.768 216.485 241.874C216.581 242.611 216.758 243.347 216.115 243.939C216.276 245.364 215.279 245.22 214.378 245.22C202.382 245.22 190.401 245.22 178.405 245.22C172.647 245.22 166.89 245.188 161.133 245.172C160.667 244.099 159.815 243.939 158.705 243.923C157 243.907 155.232 244.355 153.591 243.507C153.382 243.347 153.366 243.203 153.463 243.043Z" fill="#304D64"/>
<path d="M166.44 99.4797C167.711 97.9911 168.869 96.3745 170.654 95.4141C170.927 95.5101 171.184 95.6061 171.458 95.7022C173.066 97.8471 174.24 100.232 175.317 102.665C175.526 103.081 175.526 103.529 175.462 103.994C175.156 105.594 174.642 107.131 173.934 108.603C173.741 108.988 173.661 109.388 173.693 109.82C173.886 114.59 173.741 119.36 173.789 124.146C173.918 126.851 172.262 129.108 172.021 131.765C171.538 137.095 170.734 142.393 169.914 147.691C168.965 153.87 168.258 160.08 167.309 166.259C166.682 170.357 166.312 174.502 165.54 178.584C165.427 179.16 165.395 179.736 164.977 180.185C162.758 180.825 160.699 181.849 158.625 182.874C158.384 182.986 158.143 183.082 157.917 183.21C157.499 183.434 157.001 183.642 157.162 184.234C157.29 184.73 157.757 184.762 158.175 184.827C159.606 185.051 161.005 184.779 162.404 184.506C163.401 184.314 164.382 184.17 165.283 184.843C165.749 185.643 166.81 186.363 165.701 187.436C165.041 187.692 164.35 187.66 163.691 187.548C161.729 187.228 159.751 187.067 157.757 186.891C155.055 186.651 154.09 187.756 154.798 190.381C154.846 190.621 154.862 190.861 154.878 191.117C154.589 192.83 154.942 194.462 155.457 196.095C155.473 196.335 155.473 196.575 155.425 196.799C154.637 198.368 155.184 199.809 155.923 201.217C155.955 201.361 155.955 201.521 155.955 201.681C155.264 204.723 155.666 205.427 158.689 206.307C159.3 206.483 159.911 206.643 160.346 207.156C160.426 207.348 160.41 207.076 160.426 207.284C160.651 209.076 161.648 210.421 162.919 211.605C162.999 212.358 162.565 212.902 162.163 213.446C160.426 215.815 158.625 218.152 156.872 220.537C155.714 222.122 154.91 222.074 153.929 220.409C152.627 218.184 151.646 215.799 150.777 213.366C150.584 212.822 150.407 212.246 150.906 211.734C151.083 206.291 151.871 200.897 152.45 195.503C152.771 192.51 153.27 189.532 153.206 186.491C153.141 182.778 153.334 179.048 153.511 175.335C153.575 173.958 153.897 172.582 154.09 171.205C154.026 168.964 154.106 166.707 154.524 164.498C157.74 147.243 160.539 129.892 164.591 112.797C164.623 112.701 164.607 112.589 164.655 112.493C165.652 109.948 165.797 107.291 165.54 104.602C165.459 103.657 165.54 102.713 165.749 101.785C165.91 100.984 166.006 100.184 166.44 99.4797Z" fill="#1B334D"/>
<path d="M166.199 101.737C166.167 103.834 166.28 105.931 166.328 108.028C166.36 109.901 165.524 111.789 165.089 113.662C161.873 127.38 159.284 141.209 156.92 155.087C156.004 160.465 154.814 165.795 154.074 171.189C153.527 169.477 153.591 167.684 153.527 165.939C153.029 150.429 152.08 134.919 152.852 119.376C153.286 110.653 154.492 102.057 157.21 93.7339C158.078 93.6219 157.917 94.3742 158.03 94.7903C158.85 97.8316 159.879 100.777 161.021 103.706C161.552 105.083 162.034 105.147 162.999 104.01C163.787 103.098 164.527 102.137 165.427 101.321C165.958 100.825 166.36 100.793 166.199 101.737Z" fill="#FEFEFE"/>
<path d="M166.151 226.876C166.199 228.877 165.974 230.894 166.489 232.878C166.73 233.294 166.923 233.727 166.489 234.143C165.041 234.783 163.514 234.287 162.034 234.463C161.021 235.007 159.622 235.103 159.509 236.656C159.525 237.392 159.493 238.128 159.574 238.849C159.622 239.329 159.59 239.697 159.011 239.745C158.464 239.793 158.368 239.425 158.239 238.977C157.901 237.792 157.95 236.592 157.917 235.391C157.29 234.495 156.663 234.495 156.036 235.391C156.132 236.48 156.229 237.568 156.341 238.641C156.422 239.537 156.02 239.889 155.135 239.777C154.138 239.025 154.444 237.84 154.267 236.848C154.058 235.727 153.575 235.311 152.466 235.375C151.517 235.439 150.568 235.423 149.619 235.375C148.333 235.327 147.818 235.936 147.77 237.168C147.738 238.128 147.995 239.249 146.757 239.745C145.953 239.825 146.13 239.313 146.162 238.833C146.451 235.183 146.918 231.534 147.256 227.884C147.561 224.571 147.818 221.242 148.092 217.912C148.365 214.631 148.735 211.35 149.073 208.052C149.475 204.243 149.893 200.449 150.295 196.64C150.504 194.655 150.665 192.67 150.922 190.701C151.212 188.428 150.472 186.347 149.812 184.234C148.703 180.681 147.658 177.128 146.741 173.526C146.017 170.677 145.213 167.86 144.65 164.979C144.136 162.354 143.525 159.744 143.01 157.119C141.933 151.565 140.839 146.011 139.874 140.441C138.925 135.014 138.138 129.572 137.269 124.13C137.253 124.034 137.285 123.906 137.253 123.81C135.87 120.416 137.398 118.432 140.325 116.799C141.724 116.015 143.091 115.086 144.473 114.254C145.471 113.662 145.728 113.262 144.473 112.605C143.219 111.965 142.061 111.101 140.871 110.332C139.971 109.756 139.73 109.132 140.421 108.123C143.75 103.257 146.998 98.3594 150.279 93.4774C150.52 93.1253 150.729 92.405 151.276 92.8052C151.823 93.2053 151.163 93.6535 150.938 93.9897C147.899 98.7756 145.133 103.754 141.579 108.203C140.903 109.052 141.386 109.388 141.997 109.804C143.38 110.765 144.763 111.725 146.162 112.669C146.854 113.133 146.821 113.55 146.13 113.966C143.878 115.326 142.077 117.327 139.73 118.56C138.17 119.376 137.735 120.528 138.073 122.337C139.086 127.795 139.842 133.302 140.759 138.776C141.691 144.298 142.592 149.836 143.686 155.343C144.49 159.344 145.326 163.346 146.275 167.332C147.818 173.766 149.523 180.153 151.485 186.459C152.225 188.828 151.694 191.197 151.437 193.486C151.002 197.44 150.777 201.425 150.295 205.379C150.054 207.46 149.877 209.541 149.668 211.638C150.729 213.062 149.877 214.567 149.845 216.023C149.796 217.592 149.394 219.129 149.346 220.713C149.314 221.658 149.732 222.106 150.665 222.026C154.701 221.658 158.754 221.882 162.79 221.578C163.819 221.498 164.8 221.402 165.524 222.33C165.636 222.874 165.749 223.418 165.861 223.963C166.408 224.923 166.006 225.931 166.151 226.876Z" fill="#1A3148"/>
<path d="M165.508 222.38C161.391 222.203 157.29 222.524 153.189 222.588C151.967 222.604 150.761 222.636 149.539 222.732C148.59 222.812 148.397 222.524 148.526 221.563C148.96 218.282 149.282 214.984 149.652 211.703C149.812 211.271 149.957 210.855 150.118 210.391C150.842 210.583 150.359 211.447 150.874 211.735C151.694 214.92 153.173 217.818 154.701 220.699C155.167 221.579 155.489 221.371 155.988 220.683C158.191 217.658 160.442 214.68 162.677 211.687C163.337 210.391 163.771 210.327 164.591 211.399C164.43 211.975 164.768 212.455 164.929 212.952C165.106 216.105 165.572 219.226 165.508 222.38Z" fill="#7D9FBB"/>
<path d="M146.725 239.777C147.384 238.817 147.03 237.729 147.094 236.704C147.175 235.376 147.706 234.639 149.153 234.751C149.893 234.815 150.632 234.767 151.372 234.767C154.958 234.767 154.958 234.767 155.039 238.369C155.055 238.849 155.071 239.313 155.103 239.777C152.305 239.777 149.507 239.777 146.725 239.777Z" fill="#304D64"/>
<path d="M126.108 224.332C125.932 224.22 125.739 224.172 125.69 224.06C125.578 223.771 125.803 223.563 125.996 223.387C127.845 221.755 129.63 220.042 131.576 218.521C135.259 215.656 138.813 212.615 142.64 209.926C143.412 209.382 144.328 209.045 144.956 208.309C145.181 208.037 145.583 207.717 145.888 208.101C146.194 208.485 145.727 208.757 145.454 208.965C143.524 210.502 141.579 212.023 139.649 213.559C135.419 216.921 131.206 220.298 126.977 223.659C126.703 223.9 126.398 224.108 126.108 224.332Z" fill="#1E3549"/>
<path d="M166.199 101.737C165.99 101.177 165.829 101.481 165.604 101.737C164.703 102.762 163.803 103.786 162.854 104.778C161.632 106.091 161.407 106.043 160.763 104.442C159.364 100.937 158.206 97.3514 157.193 93.7339C157.418 92.9976 157.402 92.2133 157.837 91.541C158.432 95.7347 159.975 99.6563 161.455 103.594C161.76 104.41 162.162 104.122 162.597 103.642C163.867 102.249 165.154 100.873 166.44 99.4803C166.199 100.217 166.762 101.033 166.199 101.737Z" fill="#98BEC4"/>
<path d="M159.477 236.657C158.786 234.496 158.882 234.416 162.002 234.464C161.278 235.312 160.667 236.32 159.477 236.657Z" fill="#304D64"/>
<path d="M166.151 226.877C165.556 225.98 165.942 224.972 165.845 224.027C166.891 224.876 166.489 225.868 166.151 226.877Z" fill="#304D64"/>
<path d="M156.004 235.392C155.972 234.735 156.277 234.447 156.936 234.447C157.596 234.447 157.917 234.719 157.885 235.392C157.258 235.024 156.631 235.024 156.004 235.392Z" fill="#304D64"/>
<path d="M162.693 239.874C163.53 239.153 164.028 239.073 164.703 239.41C164.221 240.082 163.61 239.714 162.693 239.874Z" fill="#304D64"/>
<path d="M166.473 234.143C166.473 233.727 166.473 233.295 166.473 232.879C166.859 233.119 167.454 233.215 167.325 233.839C167.245 234.336 166.859 234.303 166.473 234.143Z" fill="#304D64"/>
<path d="M218.833 178.137C213.912 179.289 209.007 180.442 204.086 181.578C198.651 182.843 193.232 184.155 187.78 185.324C186.413 185.612 185.979 186.076 186.413 187.388C186.542 187.773 186.445 188.221 186.445 188.637C185.866 189.293 184.853 189.181 184.274 189.853C181.589 190.622 179.321 190.062 177.166 188.173C175.028 186.284 173.21 183.995 170.734 182.474C170.075 182.074 169.222 181.962 168.74 181.274C168.048 179.929 168.563 178.569 168.772 177.256C170.557 165.315 172.31 153.359 173.854 141.386C174.256 138.312 174.706 135.255 175.14 132.182C175.365 130.533 176.057 129.765 177.44 129.925C180.881 130.341 184.387 130.453 187.764 131.35C188.279 131.702 188.777 132.102 189.131 132.63C189.71 133.51 190.578 133.815 191.559 133.895C195.113 134.231 198.683 134.519 202.237 134.839C205.003 135.095 207.769 135.463 210.567 135.527C212.111 135.559 213.51 135.447 214.362 133.911C214.555 133.559 214.957 133.318 215.375 133.174C216.533 132.79 217.675 133.11 218.817 133.238C220.489 133.43 222.178 133.591 223.834 133.895C225.458 134.199 225.892 134.695 225.844 136.36C225.796 138.248 225.41 140.121 225.137 141.994C223.625 152.286 222.162 162.594 220.554 172.871C220.377 173.959 220.296 175.063 220.184 176.152C220.055 177.096 219.685 177.769 218.833 178.137Z" fill="#A7C1D9"/>
<path d="M218.173 208.838C217.948 210.871 217.804 212.903 217.498 214.92C217.209 216.793 215.81 217.833 213.832 218.009C213.381 218.042 212.754 217.593 212.465 218.362C211.773 217.401 210.631 217.593 209.715 217.465C203.668 216.649 197.606 215.961 191.559 215.224C191.012 215.625 190.498 215.432 189.983 215.16C187.684 214.312 185.239 214.344 182.875 213.96C177.118 213.047 171.329 212.279 165.556 211.463C165.25 211.415 164.929 211.431 164.607 211.415C163.851 210.791 163.256 211.111 162.693 211.703C160.49 211.015 160.04 209.318 160.153 207.317C160.715 206.613 161.455 206.773 162.195 206.901C164.687 207.349 167.228 207.541 169.705 208.005C172.825 208.758 176.009 208.902 179.177 209.19C182.457 209.478 185.754 209.734 188.954 210.646C189.549 211.159 190.257 210.887 190.916 210.951C192.122 211.063 193.328 211.223 194.486 211.543C200.163 211.895 205.775 212.759 211.419 213.272C213.269 213.432 213.317 213.384 213.462 211.479C213.51 210.791 213.832 210.166 213.896 209.494C213.928 209.11 214.153 208.822 214.41 208.566C215.327 209.734 216.871 209.862 218.173 208.838Z" fill="#557997"/>
<path d="M218.833 178.136C219.926 177.031 219.573 175.543 219.749 174.246C220.747 167.251 221.76 160.257 222.869 153.262C223.722 147.819 224.461 142.377 225.217 136.919C225.507 134.806 225.458 134.758 223.4 134.486C220.747 134.134 218.077 133.862 215.408 133.542C213.799 134.054 213.719 132.885 213.526 131.829C213.542 130.853 213.269 129.764 214.443 129.172C217.579 129.588 220.698 130.244 223.834 130.356C228.096 130.516 229.189 133.077 228.691 136.583C227.485 144.938 226.214 153.278 224.992 161.633C224.526 164.85 224.107 168.068 223.673 171.301C224.22 173.254 224.317 175.159 223.03 176.919C221.727 177.704 220.232 177.768 218.833 178.136Z" fill="#547898"/>
<path d="M214.426 129.188C213.992 130.084 214.201 131.077 214.073 132.021C213.204 134.422 212.481 134.886 209.94 134.486C204.408 133.59 198.844 133.126 193.28 132.629C191.655 132.485 189.999 132.309 188.697 131.109C187.539 129.652 187.458 128.772 188.375 127.283C188.487 126.675 188.616 126.067 188.729 125.459C189.372 124.546 190.272 124.306 191.366 124.418C195.611 124.898 199.857 125.379 204.102 125.811C206.305 126.035 208.525 126.179 210.728 126.339C213.478 126.563 213.719 126.739 214.426 129.188Z" fill="#8EB0CA"/>
<path d="M189.002 211.079C182.779 210.086 176.507 209.558 170.251 208.774C170.058 208.742 169.865 208.63 169.672 208.55C170.283 207.734 171.184 207.862 172.004 207.894C174.063 207.99 175.928 207.702 177.697 206.469C178.839 205.669 180.302 205.221 181.765 205.381C183.261 205.541 184.66 204.82 186.14 204.98C186.927 205.525 187.571 206.453 188.761 205.957C188.97 207.429 189.163 208.918 189.372 210.391C189.517 210.759 189.597 211.095 189.002 211.079Z" fill="#A5BED5"/>
<path d="M226.761 176.009C231.473 173.432 236.12 170.727 241.845 172.167C242.215 172.263 242.697 172.295 242.665 172.727C242.617 173.368 242.006 173.096 241.652 173.112C238.709 173.208 235.718 172.743 232.888 174.008C232.646 174.12 232.421 174.2 232.035 174.36C232.63 174.872 233.258 174.792 233.724 174.648C236.442 173.832 238.902 175.064 241.459 175.529C241.861 175.609 242.585 175.657 242.408 176.297C242.263 176.809 241.7 176.473 241.298 176.409C240.237 176.249 239.159 176.105 238.001 176.201C239.079 176.649 240.172 177.097 241.25 177.545C243.292 178.426 245.174 179.61 246.894 181.003C247.296 181.323 248.068 181.771 247.489 182.379C246.991 182.892 246.605 182.139 246.203 181.867C240.591 177.946 234.641 175.176 227.517 176.249C227.291 176.297 227.018 176.345 226.761 176.009Z" fill="#1E354A"/>
<path d="M194.084 113.07C194.003 112.301 194.582 112.125 195.129 111.901C196.978 111.133 198.795 110.317 200.645 109.596C201.481 109.276 201.722 108.892 201.561 107.948C200.613 102.489 199.728 97.0152 198.924 91.541C198.86 91.1568 198.056 90.1164 199.439 90.0684C200.323 92.1812 200.291 94.4702 200.709 96.6791C201.433 100.441 201.931 104.234 202.623 107.996C202.896 109.5 202.173 110.157 200.934 110.493C199.133 110.973 197.686 112.189 195.66 112.558C197.043 114.142 198.57 115.167 200.066 116.207C202.269 117.744 202.462 118.496 201.304 120.945C200.661 122.289 200.436 123.826 199.294 125.267C199.005 123.89 199.487 122.914 199.809 121.937C201.175 117.76 201.288 118.992 198.072 116.159C196.817 115.055 195.418 114.094 194.084 113.07Z" fill="#1A3248"/>
<path d="M188.745 205.956C188.568 206.74 187.925 206.852 187.298 206.788C186.477 206.708 186.461 206.004 186.429 205.38C185.802 204.787 185.689 203.987 185.609 203.219C185.159 199.201 184.419 195.232 184.001 191.214C183.937 190.622 184.017 190.061 184.242 189.517C184.435 187.917 185.689 188.909 186.445 188.621C187.41 194.383 188.279 200.146 188.745 205.956Z" fill="#F9FAF9"/>
<path d="M189.002 211.079C189.115 210.855 189.227 210.614 189.356 210.39C190.401 210.614 191.43 210.342 192.475 210.246C199.792 209.67 207.109 209.094 214.426 208.518C214.41 208.854 214.394 209.19 214.362 209.526C214.073 210.102 213.558 210.342 212.947 210.39C209.891 210.598 206.852 210.919 203.813 211.047C200.87 211.159 197.959 211.879 194.984 211.671C194.775 211.655 194.598 211.831 194.437 211.959C192.604 211.847 190.787 211.527 189.002 211.079Z" fill="#7B9CB9"/>
<path d="M222.998 176.921C223.207 175.048 223.432 173.175 223.641 171.303C224.333 171.847 224.654 172.631 224.992 173.4C226.359 176.521 227.211 175.993 222.998 176.921Z" fill="#AAD4E5"/>
<path d="M192.041 121.201C191.897 121.682 191.543 121.826 191.173 121.794C190.851 121.762 190.546 121.538 190.546 121.185C190.53 120.769 190.9 120.705 191.221 120.705C191.623 120.673 191.913 120.833 192.041 121.201Z" fill="#304C64"/>
<path d="M256.624 228.796C255.627 233.454 254.613 238.112 253.633 242.786C253.472 243.554 253.488 244.355 253.423 245.123C249.001 245.299 244.579 245.251 240.156 245.171C239.674 244.771 239.529 244.227 239.449 243.65C238.806 239.265 238.468 234.847 238.243 230.413C238.211 229.725 238.307 229.052 238.854 228.524C239.433 228.06 240.14 228.092 240.832 228.092C245.383 228.076 249.934 228.076 254.485 228.092C255.257 228.108 256.077 228.028 256.624 228.796Z" fill="#FEFEFE"/>
<path d="M153.35 243.234C155.328 243.266 157.322 243.298 159.3 243.314C161.343 243.33 161.343 243.314 161.069 245.139C148.751 245.139 136.433 245.155 124.115 245.155C93.4962 245.171 62.8777 245.171 32.2591 245.171C30.1685 245.171 30.1685 245.171 30.3293 243.106C33.8672 243.074 37.4051 243.042 40.9429 243.01C41.1198 243.186 41.1037 243.33 40.8625 243.41C39.7529 243.474 38.6433 243.41 37.791 243.442C39.5599 243.57 41.6183 243.122 43.6285 243.458C53.245 245.043 62.9098 243.971 72.5585 244.163C82.1751 244.355 91.7916 244.323 101.408 244.147C104.946 244.083 108.452 243.218 110.88 243.41C106.747 243.426 101.473 244.227 96.1818 243.955C95.3938 243.907 94.5737 244.067 93.8983 243.506C93.7053 243.346 93.7053 243.186 93.8983 243.026C100.942 243.17 107.985 243.122 115.029 242.994C115.592 243.25 116.171 243.122 116.75 243.122C128.376 243.138 140.003 243.122 151.63 243.138C152.193 243.154 152.771 243.074 153.35 243.234Z" fill="#233D5A"/>
<path d="M238.886 228.765C238.902 233.631 239.465 238.465 240.06 243.283C240.14 243.908 240.124 244.532 240.157 245.172C238.565 245.188 236.972 245.188 235.38 245.204C234.319 240.194 233.258 235.184 232.245 230.158C232.164 229.726 231.553 229.022 232.518 228.717C233.933 227.805 237.519 227.837 238.886 228.765Z" fill="#D2E7F1"/>
<path d="M180.302 54.9343C177.922 55.1904 177.118 53.5097 176.974 51.669C176.861 50.1964 178.582 48.5957 180.141 48.5957C182.168 48.5957 183.631 49.9563 183.615 51.829C183.599 53.7818 182.361 54.9343 180.302 54.9343Z" fill="#EB9A96"/>
<path d="M152.852 59.3519C150.906 59.3519 149.668 58.1834 149.651 56.2786C149.635 54.5179 151.147 53.0293 152.964 53.0293C154.653 53.0293 156.245 54.5499 156.277 56.1666C156.277 57.4951 154.637 59.7841 152.852 59.3519Z" fill="#EE9793"/>
<path d="M157.869 47.684C157.853 49.3647 157.097 50.5492 155.907 50.7093C154.669 50.8693 153.495 49.8129 153.141 48.1962C153.125 48.1002 153.109 47.9882 153.093 47.8761C152.771 45.7312 153.511 44.3067 155.022 44.1946C156.566 44.0666 157.885 45.6832 157.869 47.684Z" fill="#1E2C42"/>
<path d="M178.292 44.4188C178.292 45.8114 177.826 47.0118 176.346 47.268C174.819 47.5241 174.256 46.2595 173.854 45.1071C173.629 44.4828 173.564 43.7625 173.564 43.0903C173.581 41.9538 174.015 40.9774 175.269 40.7533C176.604 40.5132 177.472 41.1855 177.955 42.418C178.228 43.0742 178.292 43.7305 178.292 44.4188Z" fill="#1D2D40"/>
<path d="M199.342 43.4577C200.179 43.3936 201.031 43.6177 201.69 44.338C201.899 44.5781 202.125 44.8502 201.851 45.1544C201.626 45.4105 201.369 45.1864 201.127 45.0903C201.031 45.0583 200.935 44.9943 200.854 44.9303C200.114 44.386 199.069 44.0819 198.538 44.6742C197.927 45.3464 198.699 46.1788 199.182 46.8511C200.404 48.5317 200.404 49.06 199.182 50.0364C198.152 50.8527 197.155 50.5486 196.721 49.3C196.496 48.6278 196.866 47.4273 195.354 47.8274C194.984 47.9235 195.017 47.2672 195.065 46.9151C195.37 44.8022 197.011 43.4417 199.342 43.4577Z" fill="#D97A7B"/>
<path d="M175.703 37.2476C174.127 37.1995 172.551 37.1995 170.975 37.4236C170.22 37.5357 169.448 37.5197 169.271 36.5113C169.078 35.4868 169.834 35.2147 170.573 35.1187C172.809 34.8146 175.06 34.4624 177.311 34.9746C177.665 35.0547 178.035 35.1347 178.357 35.2788C179.129 35.6149 180.142 35.983 179.884 36.9594C179.675 37.7438 178.694 37.2315 178.067 37.2476C177.279 37.2796 176.491 37.2476 175.703 37.2476Z" fill="#223044"/>
<path d="M162.516 50.5969C162.484 52.1975 162.211 53.318 161.777 54.4064C161.455 55.2228 160.86 56.0711 161.616 56.9034C162.5 57.8638 163.562 58.5841 164.961 58.28C165.877 58.0879 166.778 57.7198 167.678 57.4477C167.968 57.3676 168.322 57.2076 168.466 57.6397C168.563 57.9439 168.289 58.1039 168.097 58.264C166.247 59.7366 163.047 59.6886 161.31 58.1199C160.458 57.3516 159.718 56.4072 160.345 55.2068C161.889 52.2455 161.375 49.1723 161.069 46.083C161.005 45.3627 160.474 44.0502 161.214 44.0022C162.227 43.9382 161.777 45.2987 161.921 46.019C162.259 47.6677 162.372 49.3484 162.516 50.5969Z" fill="#4D474A"/>
<path d="M155.2 37.5676C155.891 37.4716 156.373 37.7917 156.566 38.3999C156.824 39.1362 156.277 39.4884 155.698 39.6485C153.254 40.3367 150.825 41.041 148.558 42.1935C148.22 42.3536 147.722 42.4976 147.432 42.0174C147.207 41.6173 147.239 41.1851 147.497 40.8169C147.738 40.4808 148.027 40.1447 148.365 39.9206C150.439 38.56 152.787 37.9678 155.2 37.5676Z" fill="#1C324D"/>
<path d="M166.826 67.756C164.929 67.692 163.096 67.2758 161.552 66.0273C161.246 65.7872 160.892 65.4991 161.118 65.131C161.407 64.6508 161.777 65.0669 162.034 65.259C166.424 68.4923 173.918 66.1234 175.832 61.2254C176.009 60.7612 176.298 60.425 176.765 60.6972C177.231 60.9693 176.99 61.4495 176.797 61.8176C175.076 64.9549 172.487 66.9237 168.917 67.5319C168.242 67.66 167.55 67.676 166.826 67.756Z" fill="#643630"/>
<path d="M147.416 55.5423C146.13 54.9821 144.474 55.0781 143.911 53.3014C143.525 52.0849 143.766 51.1565 144.731 50.3882C145.262 49.972 145.905 49.6359 145.824 48.8036C145.921 48.5955 146.033 48.3874 146.13 48.1953C146.821 50.5963 147.111 53.0773 147.416 55.5423Z" fill="#D77D7D"/>
<path d="M258.215 219.545C258.859 220.233 258.585 221.034 258.424 221.786C258.087 223.274 257.894 224.779 257.267 226.188C256.832 226.716 256.237 226.876 255.562 226.876C250.11 226.924 244.675 226.988 239.24 226.524C238.966 226.508 238.725 226.412 238.484 226.3C237.262 225.467 237.712 224.107 237.455 222.97C237.262 222.106 237.294 221.194 236.377 220.649C236.152 220.521 235.83 220.217 236.12 219.881C236.345 219.625 236.715 219.769 237.02 219.737C243.533 219.737 250.03 219.737 256.527 219.721C257.09 219.737 257.701 219.929 258.215 219.545Z" fill="#FCFEFD"/>
<path d="M238.243 225.916C244.579 226.22 250.915 226.204 257.267 226.188C257.428 227.148 257.122 227.997 256.624 228.797C250.706 228.781 244.788 228.781 238.886 228.765C236.764 228.749 234.641 228.733 232.518 228.733C231.811 227.885 231.65 226.972 232.213 225.98C234.207 225.083 236.217 224.843 238.243 225.916Z" fill="#B0C0D2"/>
<path d="M134.776 22.041C136.384 25.4024 138.829 27.5633 142.335 28.9238C138.588 28.8918 135.034 25.6425 134.776 22.041Z" fill="#8FB3C8"/>
<path d="M188.021 11.3007C189.886 10.9326 192.25 12.2771 193.585 14.47C191.688 13.2375 190.015 12.037 188.021 11.3007Z" fill="#618099"/>
<path d="M78.6372 125.171C76.82 125.283 75.5014 124.355 74.4561 123.01C72.3977 120.337 72.3012 117.312 73.0088 114.158C73.1857 113.374 73.7164 112.558 73.0731 111.741C72.3816 110.861 71.6901 110.045 70.3071 110.541C69.3905 110.861 68.3774 110.893 67.2196 111.069C68.0075 111.902 68.9724 112.19 69.8086 112.702C72.5746 114.399 72.9445 116.463 70.8217 118.864C70.4197 119.313 70.5484 119.697 70.5162 120.145C70.3393 122.386 69.2297 123.49 66.9623 123.426C66.1904 123.41 66.2708 123.826 66.11 124.243C65.4989 125.955 64.5018 126.419 62.7972 125.811C60.6263 125.043 59.2433 124.163 58.2623 122.898C59.388 122.85 60.0152 123.682 60.8353 124.05C61.5107 124.355 62.1057 124.803 62.7811 125.091C63.7299 125.507 64.6466 125.571 65.1933 124.403C65.6918 123.346 65.5632 122.514 64.4697 121.874C62.2826 120.609 60.1117 119.297 57.9407 117.984C57.6352 117.808 57.201 117.792 57.1045 117.312C57.7156 116.912 58.2141 117.344 58.6965 117.584C61.2534 118.848 63.7299 120.241 66.0296 121.954C66.6728 122.434 67.3804 123.074 68.3131 122.562C69.3262 122.018 69.294 121.041 69.3262 120.081C69.3423 119.457 68.9402 119.184 68.49 118.864C65.3059 116.623 62.1218 114.383 58.5357 112.446C59.3237 111.95 59.8061 112.286 60.3529 112.558C63.1993 113.982 65.6597 115.999 68.3292 117.696C69.085 118.176 69.7925 119.281 70.8217 117.984C71.7705 116.8 71.8349 115.455 70.6609 114.479C69.0046 113.086 67.1552 111.95 65.2898 110.845C64.4214 110.333 63.5691 109.821 62.749 109.228C61.5429 108.38 61.0283 107.292 61.6555 105.803C62.3952 104.106 63.4726 103.386 65.2255 103.61C66.6728 103.786 68.0558 104.539 69.5835 103.994C68.6669 104.971 67.5573 105.067 66.3673 104.811C65.9009 104.715 65.4506 104.523 64.9843 104.442C63.7782 104.266 62.8937 104.811 62.4113 105.851C61.9288 106.891 62.3148 107.772 63.1993 108.492C65.3863 110.269 67.8789 110.189 70.4519 109.757C71.3685 109.597 74.3435 111.453 74.5204 112.334C74.6008 112.702 74.2149 112.878 74.1505 113.166C73.4751 116.463 73.0731 119.729 75.3566 122.674C76.2572 123.794 77.7367 124.034 78.6372 125.171Z" fill="#BA6261"/>
<path d="M188.359 127.283C188.487 128.468 187.989 129.764 189.002 130.773C189.034 131.717 188.616 132.053 187.715 131.749C184.467 131.365 181.219 131.045 177.986 130.549C176.475 130.309 175.912 130.741 175.719 132.197C174.674 140.313 173.612 148.428 172.471 156.527C171.441 163.906 170.3 171.253 169.222 178.616C169.093 179.497 169.013 180.393 168.917 181.273C167.373 181.946 165.314 181.385 164.542 180.105C164.961 177.64 165.427 175.175 165.781 172.694C166.504 167.62 167.148 162.53 167.839 157.44C168.74 150.845 169.672 144.266 170.573 137.672C170.927 135.079 171.232 132.469 171.602 129.876C171.747 128.836 171.988 127.78 172.696 126.963C173.468 126.083 172.824 125.01 173.178 124.082C175.027 126.147 177.633 125.539 179.948 125.987C180.399 126.083 180.897 125.987 181.315 126.243C183.567 127.267 186.011 126.947 188.359 127.283Z" fill="#577997"/>
<path d="M181.331 126.259C180.929 126.851 180.334 126.691 179.772 126.627C178.372 126.467 176.973 126.147 175.574 126.163C174.031 126.179 173.146 125.763 173.194 124.098C173.082 119.28 173.291 114.446 172.889 109.628C172.857 109.228 172.969 108.924 173.146 108.588C174.047 107.035 174.545 105.322 175.06 103.61C175.655 103.402 175.783 103.882 175.976 104.218C176.491 105.066 176.957 105.963 177.504 106.795C178.196 107.851 178.533 107.867 179.434 106.923C182.747 103.45 186.043 99.9761 189.179 96.3586C189.533 95.9585 189.774 95.1582 190.61 95.4303C190.642 95.4463 190.658 95.5103 190.642 95.5583C190.642 95.6063 190.61 95.6544 190.578 95.7024C189.018 102.393 186.976 108.94 184.869 115.47C183.76 119.088 182.521 122.673 181.331 126.259Z" fill="#FEFEFE"/>
<path d="M190.626 95.703C187.008 99.4165 183.727 103.45 179.98 107.052C179.755 107.276 179.546 107.516 179.337 107.756C178.565 108.62 178.019 108.668 177.359 107.532C176.603 106.235 176.105 104.763 175.092 103.61C175.172 103.29 175.253 102.97 175.333 102.65C176.443 103.642 176.909 105.067 177.729 106.251C178.308 107.1 178.565 107.1 179.321 106.315C183.245 102.298 186.799 97.9279 190.9 94.0703C190.851 94.6465 191.012 95.2228 190.626 95.703Z" fill="#8BB9BD"/>
<path d="M258.232 219.561C257.782 220.09 257.154 219.93 256.592 219.93C249.95 219.93 243.292 219.93 236.651 219.914C236.538 219.866 236.49 219.802 236.522 219.753C236.554 219.689 236.587 219.657 236.635 219.657C238.114 219.641 239.594 219.625 241.073 219.625C241.829 219.625 242.167 219.369 241.845 218.569C241.62 217.977 241.411 217.385 241.282 216.76C240.735 214.359 239.69 212.471 236.876 212.31C236.635 212.294 236.377 212.134 236.152 212.022C236.072 211.974 236.008 211.878 235.799 211.638C236.972 211.702 238.002 211.75 238.95 211.798C239.32 207.957 236.136 207.476 233.708 206.26C235.091 206.052 236.104 206.916 237.455 207.156C237.005 205.075 235.702 203.331 235.654 201.17C236.136 202.242 236.587 203.331 237.117 204.387C237.375 204.915 237.455 205.668 238.291 205.716L238.275 205.7C238.243 206.756 238.082 208.197 239.031 208.549C239.819 208.837 240.221 207.316 240.896 206.692C241.234 206.388 241.218 205.812 241.877 205.62C241.797 206.964 240.735 207.621 240.06 208.485C239.61 209.045 239.256 209.509 239.529 210.31C240.591 213.271 241.893 216.136 242.842 219.145C243.132 220.074 244.225 219.513 244.949 219.577C249.355 219.545 253.793 219.561 258.232 219.561Z" fill="#9CD8EC"/>
<path d="M245.174 214.791C244.129 215.432 244.113 216.936 242.746 217.56C242.955 215.768 244.113 214.599 244.9 213.287C245.126 212.918 245.399 213.367 245.592 213.591C245.431 213.991 245.303 214.391 245.174 214.791Z" fill="#99DAE9"/>
<path d="M236.635 219.642C236.651 219.722 236.651 219.818 236.651 219.898C236.603 219.914 236.554 219.914 236.506 219.946C236.458 219.962 236.426 220.01 236.377 220.042C238.709 220.587 237.793 222.635 238.211 224.044C238.388 224.62 238.243 225.292 238.243 225.917C236.233 225.933 234.223 225.965 232.212 225.981C231.746 225.917 231.231 225.885 231.055 225.34C230.492 223.708 230.556 221.947 229.881 220.314C229.623 219.674 230.492 219.626 231.006 219.626C232.791 219.594 234.592 219.594 236.377 219.578C236.458 219.594 236.538 219.61 236.635 219.642Z" fill="#D6E7F0"/>
<path d="M238.259 205.701C238.339 203.924 239.545 202.772 240.591 201.539C240.189 203.14 239.529 204.596 238.243 205.685C238.227 205.685 238.259 205.701 238.259 205.701Z" fill="#93CEE4"/>
<path d="M242.826 210.486C242.89 209.606 243.421 209.11 244.193 208.598C244.257 209.75 243.437 210.054 242.826 210.486Z" fill="#94D1EB"/>
<path d="M153.35 243.235C143.525 243.235 133.683 243.283 123.857 243.219C120.914 243.203 117.956 243.555 115.013 243.011C126.35 242.979 137.703 242.963 149.04 242.947C150.52 242.947 151.983 243.011 153.463 243.043C153.431 243.107 153.398 243.171 153.35 243.235Z" fill="#9DD1DF"/>
<path d="M93.866 243.027C93.7856 243.091 93.7213 243.171 93.657 243.251C93.0298 244.163 92.0649 243.955 91.1965 243.955C83.2042 243.987 75.2118 243.971 67.2195 243.971C60.7066 243.971 54.1937 244.019 47.6969 243.939C45.5099 243.907 43.2907 243.763 41.1358 243.235C41.0715 243.171 40.9911 243.091 40.9268 243.027C55.6732 243.011 70.4036 242.995 85.15 242.979C88.0607 242.979 90.9553 243.011 93.866 243.027Z" fill="#9DD1DF"/>
<path d="M189.967 215.145C190.498 215.161 191.029 215.193 191.543 215.209C192.122 216.025 193.135 215.945 193.923 216.313C199.391 218.922 204.762 221.675 210.069 224.588C210.857 225.021 211.645 225.421 212.417 225.869C212.706 226.045 213.189 226.205 212.867 226.669C212.674 226.957 212.288 226.861 211.999 226.701C210.326 225.821 208.621 224.973 206.981 224.012C203.492 221.963 199.777 220.331 196.159 218.538C194.052 217.514 191.881 216.553 189.967 215.145Z" fill="#1B3349"/>
<path d="M164.543 180.106C165.91 180.826 167.437 180.954 168.917 181.275C170.814 181.659 172.246 182.571 173.629 184.028C175.414 185.884 177.295 187.773 179.611 189.086C181.122 189.95 182.698 189.374 184.242 189.518C185.078 191.791 184.982 194.208 185.336 196.561C185.786 199.49 186.413 202.387 186.445 205.364C183.856 206.149 181.042 205.669 178.485 206.661C178.437 206.677 178.373 206.677 178.34 206.709C175.864 209.254 172.664 208.39 169.689 208.534C166.505 208.118 163.321 207.701 160.136 207.285C159.075 207.013 157.998 206.805 156.968 206.437C154.846 205.685 154.251 203.396 155.65 201.523C158.175 201.379 160.603 202.227 162.758 202.195C160.603 202.003 158.11 201.747 155.65 201.267C154.138 199.65 153.913 198.081 154.99 196.785C155.923 196.097 156.824 196.817 157.724 196.881C158.384 196.913 159.075 196.929 159.734 197.217C160.297 197.457 161.005 197.169 161.503 197.505C159.445 196.881 157.129 197.153 155.087 196.129C154.074 194.576 153.945 192.911 154.444 191.167C155.811 190.302 157.178 191.231 158.544 191.247C159.879 191.279 161.246 191.487 162.581 191.791C159.879 191.215 157.081 191.295 154.412 190.542C153.447 189.518 153.656 188.366 154.235 187.325C154.926 186.109 156.229 186.061 157.451 186.173C160.233 186.429 162.999 186.749 165.781 187.037C166.617 187.021 167.277 186.493 168.29 186.397C167.18 185.74 165.99 185.917 165.218 185.1C163.964 184.636 162.742 184.908 161.536 185.26C160.249 185.628 158.946 185.66 157.628 185.388C156.904 185.228 156.357 184.86 156.229 184.092C156.084 183.259 156.727 183.019 157.322 182.779C159.027 182.091 160.715 181.339 162.291 180.378C162.999 179.962 163.771 180.106 164.543 180.106Z" fill="#FEBDB8"/>
<path d="M154.396 190.574C157.998 190.67 161.552 191.086 165.057 191.855C165.041 192.047 165.009 192.239 164.993 192.431C161.471 192.015 157.949 191.599 154.428 191.166C154.428 190.974 154.412 190.782 154.396 190.574Z" fill="#B95954"/>
<path d="M155.087 196.145C158.046 196.449 160.972 196.833 163.835 197.729C160.796 198.225 157.933 197.153 154.99 196.801C155.006 196.577 155.055 196.369 155.087 196.145Z" fill="#BE6763"/>
<path d="M155.65 201.282C158.352 201.026 160.973 201.73 163.642 201.938C163.9 201.954 164.205 202.082 164.173 202.402C164.125 202.851 163.755 202.755 163.433 202.722C160.828 202.45 158.207 202.242 155.666 201.554C155.65 201.458 155.65 201.362 155.65 201.282Z" fill="#BA6760"/>
<path d="M165.186 185.148C166.521 185.068 167.743 185.516 168.965 185.964C169.19 186.044 169.512 186.092 169.496 186.445C169.48 186.765 169.19 186.893 168.965 186.925C167.904 187.085 166.858 187.565 165.765 187.085C165.99 186.3 165.25 185.836 165.186 185.148Z" fill="#AF6465"/>
<path d="M214.442 158.288C214.845 166.932 207.447 174.919 197.943 174.823C188.584 174.727 181.573 167.956 181.492 158.528C181.428 149.037 188.729 142.026 198.345 141.85C207.576 141.706 215.037 149.725 214.442 158.288Z" fill="#DEECF7"/>
<path d="M187.716 131.75C188.327 131.67 188.729 131.302 189.002 130.773C190.369 131.686 191.945 131.878 193.505 131.99C198.731 132.39 203.942 132.838 209.12 133.687C211.194 134.023 212.947 134.135 214.073 132.006C213.96 132.966 214.346 133.527 215.375 133.543C214.073 136.44 211.564 136.392 208.991 136.136C205.067 135.751 201.144 135.335 197.22 134.935C195.805 134.791 194.357 134.663 192.974 134.663C190.546 134.663 188.777 133.959 187.716 131.75Z" fill="#6D8FB2"/>
<path d="M194.438 211.974C194.39 210.982 195.113 211.126 195.74 211.094C201.69 210.661 207.657 210.213 213.607 209.765C213.864 209.749 214.105 209.621 214.362 209.541C214.266 210.725 214.169 211.926 214.073 213.11C214.009 213.863 213.735 214.199 212.867 214.103C207.126 213.479 201.417 212.598 195.66 212.262C195.242 212.246 194.84 212.07 194.438 211.974Z" fill="#9FC0D7"/>
<path d="M210.615 128.516C211.757 128.612 212.4 129.316 212.449 130.324C212.497 131.301 211.693 131.829 210.808 131.893C209.779 131.973 209.12 131.301 209.039 130.292C208.959 129.236 209.683 128.74 210.615 128.516Z" fill="#2C4A68"/>
<path d="M193.794 128.18C193.633 129.252 192.926 129.765 191.945 129.733C190.996 129.701 190.353 129.044 190.385 128.084C190.417 127.22 190.867 126.403 191.929 126.451C192.974 126.515 193.73 127.011 193.794 128.18Z" fill="#254163"/>
<path d="M41.1357 243.236C44.5771 243.22 48.0024 243.204 51.4437 243.188C64.9359 243.172 78.428 243.172 91.9201 243.172C92.499 243.172 93.0779 243.22 93.6569 243.236C100.105 243.236 106.538 243.236 112.986 243.236C110.317 243.588 107.631 243.508 105.042 244.244C100.684 245.461 96.2298 244.789 91.8397 244.821C79.2481 244.917 66.6566 244.837 54.065 244.869C50.1733 244.885 46.2978 244.869 42.5026 243.844C40.2191 243.22 37.823 243.796 35.4912 243.22C37.3405 243.236 39.2381 243.236 41.1357 243.236Z" fill="#1A2D52"/>
<path d="M189.983 156.911C189.951 155.983 190.61 155.438 191.27 155.054C191.977 154.638 192.186 155.471 192.62 155.807C194.003 156.895 195.081 158.256 196.223 159.568C196.834 160.256 197.284 160.401 198.12 159.584C200.548 157.183 203.154 154.958 205.678 152.653C206.434 151.965 206.9 152.525 207.415 153.006C207.946 153.518 208.364 154.046 207.672 154.734C206.37 156.031 205.083 157.375 203.732 158.64C201.738 160.513 199.664 162.305 197.686 164.194C197.075 164.77 196.641 164.834 196.126 164.194C194.454 162.081 192.427 160.304 190.594 158.336C190.208 157.952 189.983 157.455 189.983 156.911Z" fill="#FCFDFD"/>
</g>
<defs>
<clipPath id="clip0_577_3595">
<rect width="309" height="255" fill="white"/>
</clipPath>
</defs>
</svg>
